<?xml version="1.0" encoding="iso-8859-1"?>
<!-- Generator: Adobe Illustrator 21.1.0, SVG Export Plug-In . SVG Version: 6.00 Build 0)  -->
<svg version="1.1" id="Layer_1" xmlns="http://www.w3.org/2000/svg" xmlns:xlink="http://www.w3.org/1999/xlink" x="0px" y="0px"
	 viewBox="0 0 425.218 141.928" style="enable-background:new 0 0 425.218 141.928;" xml:space="preserve">
<g>
	<defs>
		<rect id="SVGID_1_" width="425.218" height="141.928"/>
	</defs>
	<clipPath id="SVGID_2_">
		<use xlink:href="#SVGID_1_"  style="overflow:visible;"/>
	</clipPath>
	<path style="clip-path:url(#SVGID_2_);fill:#1aaf5e;" d="M390.985,59.597c0-4.535,3.693-8.228,8.268-8.228
		c4.533,0,8.226,3.693,8.226,8.228c0,4.573-3.693,8.266-8.226,8.266C394.678,67.863,390.985,64.17,390.985,59.597 M405.926,59.597
		c0-3.694-2.979-6.675-6.673-6.675c-3.714,0-6.715,2.981-6.715,6.675c0,3.733,3.001,6.714,6.715,6.714
		C402.947,66.311,405.926,63.33,405.926,59.597 M403.344,64.107h-2.035l-1.972-3.777h-1.742v3.777h-1.742v-8.918h4.303
		c0.756,0,1.741,0.02,2.413,0.44c0.797,0.525,1.049,1.385,1.049,2.309c0,1.615-0.859,2.287-2.434,2.392L403.344,64.107z
		 M400.197,59.009c0.987,0.02,1.68-0.211,1.68-1.344c0-1.155-1.259-1.155-2.12-1.155h-2.162v2.499H400.197z"/>
	<path style="clip-path:url(#SVGID_2_);fill-rule:evenodd;clip-rule:evenodd;fill:#1aaf5e;" d="M422.561,107.018
		c-1.942-1.851-4.018-2.791-6.172-2.791c-2.247,0-4.524,1.065-6.585,3.078c-4.239,4.139-7.857,7.563-12.576,10.797
		c-2.213,1.515-4.154,2.285-5.771,2.285c-5.829,0-6.27-9.351-6.563-15.538l-0.042-0.883c-0.248-4.948,0.707-10.147,1.631-15.175
		c0.492-2.681,1.002-5.452,1.303-8.087c0.457-3.995,0.665-13.51-7.243-15.57c-1.185-0.309-2.357-0.465-3.481-0.465
		c-8.596,0-13.889,8.941-17.539,16.73c-1.441,3.076-2.69,6.29-3.897,9.401c-0.783,2.014-1.592,4.098-2.445,6.124l-0.875,2.073
		l0.219-2.239c0.204-2.108,0.521-4.317,0.856-6.656c0.688-4.803,1.399-9.77,1.105-13.906c-0.346-4.853-2.998-7.526-7.468-7.526
		c-1.47,0-3.057,0.284-4.72,0.844c-6.12,2.062-8.67,18.73-9.507,24.207c-0.216,1.414-0.473,2.964-0.747,4.622
		c-0.886,5.355-1.934,11.747-2.431,18.215c-0.529,5.252-2.867,6.796-3.654,7.172c-0.077,0.034-0.154,0.065-0.231,0.099
		c-0.02,0.007-0.034,0.011-0.028,0.012c-2.627,1.109-6.023,2-8.156-0.406c-2.428-2.737-2.862-6.891-2.806-10.397
		c0.065-4.16,0.973-8.236,1.904-12.272c0.482-2.084,0.995-4.161,1.436-6.254c2.742-13.021-3.949-20.252-17.233-20.252
		c-1.924,0-3.995,0.173-6.331,0.528c-9.188,1.401-17.902,6.3-23.308,13.105c-1.574,1.979-2.792,4.145-3.832,6.446
		c-1.159,2.561-1.982,5.203-2.576,7.948c-0.652,3.017-1.104,6.047-1.233,9.134c-0.114,2.749-0.07,5.494-0.018,8.244
		c0.044,2.23-0.262,4.165-2.354,5.339c-0.903,0.506-1.899,0.706-2.938,0.707c-1.779,0-3.138-0.757-3.93-2.19
		c-2.27-4.105-2.154-9.773-2.062-14.329l0.014-0.669c0.054-2.813,0.367-5.608,0.672-8.311c0.401-3.565,0.815-7.25,0.617-10.941
		c-0.265-4.915-2.893-8.343-7.209-9.406c-0.882-0.217-1.757-0.326-2.599-0.326c-6.695,0-10.948,6.753-14.226,13.358
		c-1.269,2.557-2.526,5.232-3.74,7.818l-1.797,3.812l-0.043-1.422c0,0-0.112-3.594-0.221-7.982
		c-0.165-6.51-0.634-10.552-5.767-11.815c-0.944-0.233-1.879-0.351-2.775-0.351c-6.869,0-11.117,6.786-14.051,12.697
		c-1.215,2.448-1.988,4.138-2.808,5.927c-0.682,1.491-1.388,3.033-2.389,5.098l-0.949,1.957l0.302-2.154
		c0.007-0.057,0.034-0.225,0.073-0.477c0.173-1.106,0.631-4.042,0.822-5.84c0.079-0.735,0.156-1.386,0.229-1.986
		c0.279-2.331,0.463-3.87,0.251-6.697c-0.396-5.241-4.853-5.807-6.75-5.807c-1.234,0-2.535,0.221-3.763,0.639
		c-5.364,1.824-5.972,9.284-6.459,15.277l-0.05,0.609c-0.266,3.278-0.367,6.576-0.469,9.863c-0.112,3.648,0.677,7.543-1.179,10.901
		c-1.677,3.032-5.2,4.403-8.535,4.403c-4.307,0-9.464-1.867-11.276-6.038l-0.073-0.169l0.1-0.154
		c3.299-5.038,9.246-15.854,11.835-23.056c0.016-0.042,1.275-3.332-0.231-5.866c-0.949-1.599-2.797-2.582-5.494-2.924
		c-0.298-0.038-0.597-0.058-0.888-0.058c-3.354,0-5.628,2.528-6.945,4.649c-0.459,0.907-4.086,7.447-4.228,7.684l-0.355,0.597
		l-0.009-0.019c-0.87,1.479-1.789,2.941-2.734,4.355l-0.343,0.515l-0.373-0.835c-2.097-4.696-5.997-13.438-11.367-13.438
		c-0.265,0-0.534,0.022-0.799,0.064c-1.313,0.206-3.689,0.897-4.86,3.207c-1.413,2.784-0.686,6.997,2.159,12.519
		c1.848,3.588,3.941,7.855,5.089,10.376l0.097,0.212c0,0-5.88,6.969-9.984,6.969c-0.977,0-1.937-0.198-2.854-0.589l-0.096-0.041
		c-3.818-1.693-5.046-4.906-6.346-8.309c-0.29-0.758-0.591-1.543-0.921-2.311c-1.708-3.962-3.701-5.652-6.666-5.652
		c-1.103,0-2.329,0.235-3.752,0.72c-1.443,0.493-2.376,1.393-2.851,2.752c-2.004,5.734,4.988,16.897,5.791,18.151
		c4.559,7.113,8.964,10.162,15.205,10.522c3.77,0.213,7.413-0.378,10.647-1.863c3.716-1.707,10.242-7.917,10.242-7.917
		c2.309,3.383,9.272,9.78,19.101,9.78c6.225,0,9.911-1.349,14.085-4.125l0.299-0.199l0.184,0.309
		c1.579,2.653,3.834,4.055,6.523,4.055c4.521,0,9.821-4.013,12.326-9.334c3.387-7.195,5.752-13.009,8.162-20.068l0.891-2.614
		l-0.226,2.753c-0.686,8.295,0.13,20.88,1.22,23.483c1.498,3.578,4.514,5.713,8.071,5.713c3.067,0,5.778-1.623,7.253-4.342
		c3.356-6.185,4.672-11.452,6.063-17.03c0.706-2.828,1.436-5.752,2.465-8.98l0.839-2.631l-0.172,2.757
		c-0.091,1.481-0.127,4.952,0.168,7.963c0.07,0.709,0.134,1.475,0.201,2.28c0.406,4.825,0.96,11.434,3.589,14.912
		c3.432,4.541,8.894,5.494,12.87,5.494c6.76,0,13.365-2.535,16.968-4.705l0.246-0.148l0.189,0.216
		c1.319,1.507,2.941,2.648,4.822,3.393c1.285,0.511,3.107,0.769,5.416,0.769c3.563,0,7.06-0.622,8.048-0.813
		c4.712-0.91,7.752-2.751,11.603-5.083c0.587-0.356,1.194-0.723,1.83-1.103l0.332-0.197l0.497,1.113
		c1.833,4.117,5.707,6.205,11.517,6.205c6.082,0,13.148-2.402,17.453-4.784c0.44-0.243,0.871-0.498,1.296-0.764l0.288-0.18
		l0.183,0.288c2.242,3.554,5.318,5.433,8.898,5.433c11.003,0,16.304-16.237,19.993-25.17c1.903-4.605,3.869-9.368,6.206-14.623
		l0.766-1.721l-0.11,1.88c-0.041,0.673-0.05,0.834-0.057,0.874c0.011,0.182-0.001,0.468-0.02,0.92
		c-0.176,4.092-0.169,6.152,0.212,10.277c0.566,6.112,1.207,13.039,4.066,19.345c2.461,5.428,6.767,8.18,12.801,8.181
		c12.902,0.001,31.207-13.118,39.564-24.89C424.237,116.118,427.342,111.582,422.561,107.018 M300.94,99.456
		c-0.755,7.196-1.729,16.441-6.221,22.408c-1.031,1.369-2.476,2.747-3.955,3.583c-1.303,0.738-2.512,1.111-3.593,1.111
		c-1.596,0-2.932-0.796-3.969-2.367c-2.024-3.062-2.413-7.337-2.484-10.922c-0.079-3.959-0.118-8.247,0.978-12.072
		c0.108-0.379,0.228-0.76,0.36-1.14c1.95-5.602,6.486-11.288,12.599-11.288c2.084,0,4.784,0.529,5.637,2.773
		C301.186,93.894,301.193,97.046,300.94,99.456"/>
	<path style="clip-path:url(#SVGID_2_);fill-rule:evenodd;clip-rule:evenodd;fill:#1aaf5e;" d="M110.98,96.02
		c-0.578-0.104-1.189-0.156-1.817-0.156c-2.134,0-4.21,0.598-5.418,1.564c-2.461,1.968-2.33,4.666-1.167,6.342
		c0.65,0.936,1.641,1.604,2.79,1.879c0.553,0.134,1.152,0.178,1.767,0.13c2.143-0.17,6.598-1.119,8.124-3.501
		c0.522-0.815,0.626-1.745,0.31-2.765c-0.138-0.442-0.337-0.854-0.595-1.224C113.959,96.828,112.242,96.249,110.98,96.02"/>
	<path style="clip-path:url(#SVGID_2_);fill-rule:evenodd;clip-rule:evenodd;fill:#1aaf5e;" d="M84.376,101.9l-0.081-0.308
		l0.299-0.103c9.827-3.443,19.442-7.857,28.58-13.122c16.243-9.36,27.77-20.246,34.264-32.357
		c6.621-12.348,7.604-25.216,2.629-34.424c-5.884-10.891-17.319-15.453-25.409-17.936c-9.761-2.996-21.047-4.115-34.995-3.477
		C75.959,0.806,63.848,2.729,52.637,6.052c-13.582,4.024-25.58,10.605-35.663,19.559C9.683,32.087-2.175,45.406,0.346,61.836
		c2.076,13.543,15.153,22.191,25.759,27.061c1.667,0.765,3.595,1.152,5.734,1.152c3.822,0,8.22-1.282,11.762-3.43
		c2.049-1.244,5.044-4.113,4.883-6.911c-0.06-1.044-0.604-2.504-2.853-3.538c-8.056-3.698-13.334-7.725-17.111-13.058
		c-2.498-3.523-3.718-9.26-2.97-13.954c3.258-20.452,27.227-30.479,45.206-33.131c15.469-2.282,32.961-3.988,46.624,5.383
		c14.778,10.137,11.316,28.74,1.447,41.456c-8.606,11.089-21.263,18.291-33.979,23.694c-0.789,0.335-1.573,0.656-2.322,0.956
		l-0.442,0.178l-0.026-0.477c-0.498-9,0.618-17.884,3.314-26.405c0.3-0.945,0.188-1.813-0.322-2.51
		c-1.447-1.975-5.542-2.076-6.348-2.076c-0.407,0-0.788,0.019-1.102,0.054c-3.922,0.444-8.557,2.315-9.796,6.232
		c-3.018,9.54-4.143,20.038-3.253,30.361l0.025,0.285l-0.277,0.074c-2.742,0.746-7.894,2.86-9.805,6.061
		c-0.733,1.228-0.931,2.501-0.589,3.782c0.498,1.859,2.223,4.076,7.611,4.076c1.531,0,3.249-0.177,5.102-0.524l0.312-0.06
		l0.082,0.307c3.588,13.308,10.335,24.784,19.511,33.185c1.355,1.24,3.184,1.869,5.437,1.869c2.627,0,4.99-0.857,6.164-1.369
		c0.97-0.423,4.981-2.699,5.418-5.318c0.153-0.919-0.177-1.781-0.953-2.491C93.931,124.823,87.633,114.155,84.376,101.9"/>
</g>
</svg>
